<svg xmlns="http://www.w3.org/2000/svg" id="Layer_1" data-name="Layer 1" viewBox="0 0 502.54 134.19"><defs><style>.cls-1{fill:#ef4050;}.cls-2{fill:#fff;}.cls-3{fill:#3a3a3a;}</style></defs><title>apptrainers logo</title><path class="cls-1" d="M162.55,129.09a8.52,8.52,0,0,1-8.53,8.53H11.31a8.51,8.51,0,0,1-8.51-8.53V11.94a8.5,8.5,0,0,1,8.51-8.51H154a8.51,8.51,0,0,1,8.53,8.51Z" transform="translate(-2.8 -3.43)"></path><path class="cls-2" d="M40.07,45c3.33,2.2,5,5.56,5,10.1V82.5a3,3,0,0,0,.77,2.24,3.28,3.28,0,0,0,2.43.87,2.31,2.31,0,0,1,1.73.7A2.93,2.93,0,0,1,50.7,88a2.36,2.36,0,0,1-2.52,2.42c-3.27,0-5.55-.4-6.82-1.21a4.36,4.36,0,0,1-1.55-3.8,20.13,20.13,0,0,1-5.88,4,24.92,24.92,0,0,1-10.2,2q-7.79,0-11.75-3.63Q8.08,84.32,8.09,78c0-3.8.88-6.73,2.68-8.82,2.64-3,7.46-4.92,14.43-5.78,6.17-.86,10.14-1.79,11.93-2.76s2.6-2.63,2.6-5.11a7.53,7.53,0,0,0-2.87-6.39c-2-1.5-5-2.25-9.07-2.25s-6.86.86-8.81,2.6a9.48,9.48,0,0,0-3,6.56,2.39,2.39,0,0,1-1.13,1.73,2.55,2.55,0,0,1-1.9.51,2.42,2.42,0,0,1-1.72-.85,2.16,2.16,0,0,1-.52-2.07c.7-4.45,2.53-7.79,5.53-10S23,42.13,27.88,42.13Q35.65,42.13,40.07,45ZM39.73,64.1a12.81,12.81,0,0,1-4.25,2,67.13,67.13,0,0,1-10.19,2q-6.49.87-9.17,3.29c-1.72,1.5-2.59,3.71-2.59,6.65s.81,4.94,2.42,6.31,4.25,2.25,7.78,2.25a21.4,21.4,0,0,0,10.2-2.25,13.89,13.89,0,0,0,5.8-5.53Z" transform="translate(-2.8 -3.43)"></path><path class="cls-2" d="M60.2,45.77A2.81,2.81,0,0,1,61,43.69a2.75,2.75,0,0,1,1.9-.68,2.61,2.61,0,0,1,2.67,2.76V50a17.42,17.42,0,0,1,6.32-6,19,19,0,0,1,8.73-1.9c6.57,0,11.7,2.55,15.38,7.61q5,6.75,5,16.94t-5,17q-5.52,7.7-15.38,7.69A19.56,19.56,0,0,1,71,89.08a14.12,14.12,0,0,1-5.46-5V99.44a3,3,0,0,1-.85,2.24,2.19,2.19,0,0,1-1.82.7,2.58,2.58,0,0,1-1.9-.78,3.66,3.66,0,0,1-.78-2.42ZM69.1,53q-3.54,5.43-3.55,13.72T69.1,80.43a13,13,0,0,0,11.5,6.13,12.84,12.84,0,0,0,11.32-6.13Q95.55,75,95.55,66.76T91.92,53A12.84,12.84,0,0,0,80.6,46.89,13,13,0,0,0,69.1,53Z" transform="translate(-2.8 -3.43)"></path><path class="cls-2" d="M113.79,45.77a2.81,2.81,0,0,1,.78-2.08,2.74,2.74,0,0,1,1.9-.68,2.62,2.62,0,0,1,1.81.68,2.65,2.65,0,0,1,.87,2.08V50a17.17,17.17,0,0,1,6.31-6,19,19,0,0,1,8.72-1.9c6.57,0,11.7,2.55,15.39,7.61q5,6.75,5,16.94t-5,17q-5.53,7.7-15.39,7.69a19.64,19.64,0,0,1-9.59-2.32,14,14,0,0,1-5.44-5V99.44a3,3,0,0,1-.87,2.24,2.16,2.16,0,0,1-1.81.7,2.56,2.56,0,0,1-1.9-.78,3.66,3.66,0,0,1-.78-2.42ZM122.68,53q-3.54,5.43-3.53,13.72t3.53,13.67a13,13,0,0,0,11.5,6.13,12.82,12.82,0,0,0,11.32-6.13q3.63-5.45,3.64-13.67T145.5,53a12.82,12.82,0,0,0-11.32-6.15A13,13,0,0,0,122.68,53Z" transform="translate(-2.8 -3.43)"></path><path class="cls-3" d="M175.88,29.61a4.13,4.13,0,0,1,4.32,0,2.26,2.26,0,0,1,1,2v12h8.07c1.7,0,2.56.77,2.56,2.33s-.86,2.42-2.56,2.42h-8.07V82.67a3.67,3.67,0,0,0,1,2.6,4.33,4.33,0,0,0,3.35,1.29h3.54a3.54,3.54,0,0,1,2.26.69,2.2,2.2,0,0,1,.79,1.74,2.13,2.13,0,0,1-.79,1.64,3.26,3.26,0,0,1-2.26.77h-4.62a9.32,9.32,0,0,1-7.09-2.68A7.7,7.7,0,0,1,175,83V48.36h-5.32c-1.51,0-2.26-.8-2.26-2.42a2,2,0,0,1,2.26-2.33H175v-12A2.35,2.35,0,0,1,175.88,29.61Z" transform="translate(-2.8 -3.43)"></path><path class="cls-3" d="M204.79,43.42a3.89,3.89,0,0,1,2.17-.59,4.05,4.05,0,0,1,2.07.52,2.19,2.19,0,0,1,1,1.9V48.8a17.9,17.9,0,0,1,5.31-4.59,17.16,17.16,0,0,1,8.46-2.08c1.44,0,2.19.88,2.26,2.6s-.72,2.68-2.36,2.68a16.74,16.74,0,0,0-8.55,2.16A12.8,12.8,0,0,0,210,54.84V88.55a2.54,2.54,0,0,1-1,2.08,3.24,3.24,0,0,1-2.07.68,3.45,3.45,0,0,1-2.17-.68,2.68,2.68,0,0,1-.87-2.08V45.25A2.25,2.25,0,0,1,204.79,43.42Z" transform="translate(-2.8 -3.43)"></path><path class="cls-3" d="M271.21,45a10.89,10.89,0,0,1,5.7,10.1V82.5a2.81,2.81,0,0,0,.89,2.24,4,4,0,0,0,2.75.87,2.8,2.8,0,0,1,2,.7A2.72,2.72,0,0,1,283.3,88a2.27,2.27,0,0,1-.67,1.65,3,3,0,0,1-2.18.77q-5.61,0-7.77-1.21a4.14,4.14,0,0,1-1.77-3.8,23.27,23.27,0,0,1-6.68,4,31.85,31.85,0,0,1-11.62,2c-5.9,0-10.37-1.21-13.38-3.63s-4.42-5.55-4.42-9.77c0-3.8,1-6.73,3.05-8.82,3-3,8.49-4.92,16.42-5.78,7-.86,11.54-1.79,13.59-2.76s2.93-2.63,2.93-5.11a7.17,7.17,0,0,0-3.23-6.39q-3.45-2.25-10.33-2.25-6.69,0-10,2.6a9.09,9.09,0,0,0-3.44,6.56,2.39,2.39,0,0,1-1.28,1.73,3.24,3.24,0,0,1-2.17.51,3,3,0,0,1-2-.85,2,2,0,0,1-.59-2.07,14.4,14.4,0,0,1,6.3-10c3.34-2.13,7.77-3.21,13.27-3.21Q266.2,42.13,271.21,45ZM270.8,64.1a15,15,0,0,1-4.81,2,85.54,85.54,0,0,1-11.61,2Q247,68.93,244,71.35A7.8,7.8,0,0,0,241,78c0,2.82.92,4.94,2.75,6.31s4.85,2.25,8.85,2.25a27.19,27.19,0,0,0,11.62-2.25,14.84,14.84,0,0,0,6.57-5.53Z" transform="translate(-2.8 -3.43)"></path><path class="cls-3" d="M301.8,26.24a4.38,4.38,0,0,1,1.28,3.2,4.19,4.19,0,0,1-1.28,3,4.92,4.92,0,0,1-3.64,1.38,4.73,4.73,0,0,1-3.64-1.38,4.2,4.2,0,0,1-1.18-3,4.6,4.6,0,0,1,1.18-3.2,4.7,4.7,0,0,1,3.64-1.39A4.88,4.88,0,0,1,301.8,26.24ZM296,42.74a3.43,3.43,0,0,1,2.17-.69,3.69,3.69,0,0,1,2.16.61,2.15,2.15,0,0,1,1,1.89v44a2.51,2.51,0,0,1-1,2.08,3.14,3.14,0,0,1-2.16.77,3.43,3.43,0,0,1-2.17-.69,2.93,2.93,0,0,1-.87-2.16v-44A2.06,2.06,0,0,1,296,42.74Z" transform="translate(-2.8 -3.43)"></path><path class="cls-3" d="M319.31,43.51a3.44,3.44,0,0,1,2.16-.68,3.3,3.3,0,0,1,2.07.68,2.54,2.54,0,0,1,1,2.08V51a19.26,19.26,0,0,1,7.28-6.48,23.81,23.81,0,0,1,10.83-2.34c5.31,0,9.55,1.41,12.68,4.24a12,12,0,0,1,4.33,9.42V88.55a2.78,2.78,0,0,1-1,2.16,3.25,3.25,0,0,1-2.07.69,3.38,3.38,0,0,1-2.15-.69,2.87,2.87,0,0,1-.89-2.16V55.79a7.81,7.81,0,0,0-2.75-6.13,11.71,11.71,0,0,0-8.17-2.77,19.35,19.35,0,0,0-10,2.6,23.64,23.64,0,0,0-8.08,8.19V88.47a2.87,2.87,0,0,1-1,2.24,3.64,3.64,0,0,1-2.07.77,3.17,3.17,0,0,1-2.16-.77,2.71,2.71,0,0,1-.88-2.16v-43A2.64,2.64,0,0,1,319.31,43.51Z" transform="translate(-2.8 -3.43)"></path><path class="cls-3" d="M413.75,75a4.15,4.15,0,0,1,2.46.08,2.75,2.75,0,0,1,1.68,1.3,2.71,2.71,0,0,1,0,2.42A20.66,20.66,0,0,1,409.63,88a24.38,24.38,0,0,1-13,3.37q-10.53,0-16.73-7.6-5.61-6.92-5.6-17t5.6-17.11q6.21-7.59,16.73-7.61t16.82,7.61a26.25,26.25,0,0,1,5.7,17.11v1.39H380.49a21.64,21.64,0,0,0,4.25,12.35,14,14,0,0,0,11.9,6,15.75,15.75,0,0,0,9.84-3,19.64,19.64,0,0,0,5.41-6.74A3.32,3.32,0,0,1,413.75,75ZM412.66,63.4a20.31,20.31,0,0,0-4.22-10.81,14.38,14.38,0,0,0-11.8-5.7,14.19,14.19,0,0,0-11.72,5.62A20.09,20.09,0,0,0,380.7,63.4Z" transform="translate(-2.8 -3.43)"></path><path class="cls-3" d="M434.89,43.42a3.9,3.9,0,0,1,2.18-.59,4.07,4.07,0,0,1,2.06.52,2.18,2.18,0,0,1,1,1.9V48.8a18.18,18.18,0,0,1,5.32-4.59,17.15,17.15,0,0,1,8.45-2.08c1.45,0,2.2.88,2.27,2.6s-.72,2.68-2.36,2.68a16.74,16.74,0,0,0-8.55,2.16,12.83,12.83,0,0,0-5.13,5.27V88.55a2.53,2.53,0,0,1-1,2.08,3.25,3.25,0,0,1-2.06.68,3.46,3.46,0,0,1-2.18-.68,2.68,2.68,0,0,1-.87-2.08V45.25A2.25,2.25,0,0,1,434.89,43.42Z" transform="translate(-2.8 -3.43)"></path><path class="cls-3" d="M499.15,45.86A11.43,11.43,0,0,1,504,54.32a2.33,2.33,0,0,1-.89,2.07,4.43,4.43,0,0,1-2.26.88,3.81,3.81,0,0,1-2.26-.52,2.46,2.46,0,0,1-1.19-1.91,7.36,7.36,0,0,0-3.53-5.78q-3.34-2.18-9.94-2.17a17.27,17.27,0,0,0-8.36,1.82c-2.24,1.32-3.35,3-3.35,5a6.54,6.54,0,0,0,2.95,5.62c2.11,1.43,6,2.79,11.61,4.06,6.9,1.38,11.74,3.25,14.56,5.62a11.79,11.79,0,0,1-.79,18.4q-5.2,4-14.94,4t-15-3.54a12.3,12.3,0,0,1-5.5-10.28,2.21,2.21,0,0,1,.88-2,3,3,0,0,1,2.07-.69,3.42,3.42,0,0,1,2.16.52,2.26,2.26,0,0,1,1.09,1.81,7.89,7.89,0,0,0,3.24,6.84q3.45,2.5,11.11,2.5c4.26,0,7.62-.83,10-2.5A6.94,6.94,0,0,0,499.15,78a6.34,6.34,0,0,0-3-5.53Q492.65,70,483,67.89c-5.84-1.33-10.07-3-12.69-5a10.55,10.55,0,0,1,.89-17.63c3.28-2.07,7.56-3.12,12.88-3.12Q494,42.13,499.15,45.86Z" transform="translate(-2.8 -3.43)"></path><path class="cls-2" d="M16.86,109.32a.53.53,0,0,1,.18.41.54.54,0,0,1-.18.37.57.57,0,0,1-.45.17H12.63v13.25a.65.65,0,0,1-.19.47.56.56,0,0,1-.39.15.64.64,0,0,1-.42-.15.72.72,0,0,1-.15-.47V110.27h-4c-.3,0-.44-.18-.44-.54s.14-.56.44-.56h8.89A.64.64,0,0,1,16.86,109.32Z" transform="translate(-2.8 -3.43)"></path><path class="cls-2" d="M19.59,113.1A.64.64,0,0,1,20,113a.67.67,0,0,1,.39.12.57.57,0,0,1,.19.45v.81a3.62,3.62,0,0,1,1-1,2.78,2.78,0,0,1,1.62-.48c.26,0,.4.2.42.59s-.14.62-.45.62a2.84,2.84,0,0,0-1.62.49,2.78,2.78,0,0,0-1,1.21v7.78a.63.63,0,0,1-.19.47.54.54,0,0,1-.39.17.57.57,0,0,1-.4-.17.62.62,0,0,1-.17-.47v-10A.54.54,0,0,1,19.59,113.1Z" transform="translate(-2.8 -3.43)"></path><path class="cls-2" d="M32.16,113.46a2.64,2.64,0,0,1,1.08,2.33v6.31a.69.69,0,0,0,.17.5.65.65,0,0,0,.53.22.57.57,0,0,1,.38.15,1,1,0,0,1,.14.39.65.65,0,0,1-.14.4.55.55,0,0,1-.4.17,2.89,2.89,0,0,1-1.48-.28,1.05,1.05,0,0,1-.34-.87,4.18,4.18,0,0,1-1.26.91,5.18,5.18,0,0,1-2.2.45,3.55,3.55,0,0,1-2.54-.83,3,3,0,0,1-.83-2.25,3.18,3.18,0,0,1,.58-2,4.78,4.78,0,0,1,3.1-1.33,8.49,8.49,0,0,0,2.57-.62,1.23,1.23,0,0,0,.56-1.17,1.77,1.77,0,0,0-.61-1.48,3,3,0,0,0-1.95-.52,2.75,2.75,0,0,0-1.91.59A2.4,2.4,0,0,0,27,116a.58.58,0,0,1-.24.4.57.57,0,0,1-.79-.08.54.54,0,0,1-.11-.47,3.51,3.51,0,0,1,1.2-2.33,4,4,0,0,1,2.52-.72A4.54,4.54,0,0,1,32.16,113.46Zm-.08,4.39a2.24,2.24,0,0,1-.9.46,12,12,0,0,1-2.21.46,3.56,3.56,0,0,0-2,.76,2,2,0,0,0-.56,1.53,1.89,1.89,0,0,0,.52,1.46,2.43,2.43,0,0,0,1.68.51,4.56,4.56,0,0,0,2.2-.51,3.06,3.06,0,0,0,1.24-1.28Z" transform="translate(-2.8 -3.43)"></path><path class="cls-2" d="M36.67,113.12a.65.65,0,0,1,.42-.16.55.55,0,0,1,.38.16.62.62,0,0,1,.19.48v1.22A4.2,4.2,0,0,1,39,113.34a3.84,3.84,0,0,1,2.05-.53,3.14,3.14,0,0,1,2.41,1,3.11,3.11,0,0,1,.82,2.18v7.55a.67.67,0,0,1-.19.49.61.61,0,0,1-.8,0,.7.7,0,0,1-.17-.49V116a2,2,0,0,0-2.07-2,3.24,3.24,0,0,0-1.9.59,5.18,5.18,0,0,0-1.53,1.9v7.08a.69.69,0,0,1-.19.52.68.68,0,0,1-.38.18.62.62,0,0,1-.42-.18.71.71,0,0,1-.16-.49v-9.9A.68.68,0,0,1,36.67,113.12Z" transform="translate(-2.8 -3.43)"></path><path class="cls-2" d="M53.57,113.66a2.75,2.75,0,0,1,.9,2,.52.52,0,0,1-.17.46.7.7,0,0,1-.42.21.66.66,0,0,1-.43-.12.58.58,0,0,1-.22-.45,1.76,1.76,0,0,0-.67-1.32,3.05,3.05,0,0,0-1.88-.5,2.81,2.81,0,0,0-1.59.41,1.36,1.36,0,0,0-.63,1.16,1.65,1.65,0,0,0,.55,1.29,6,6,0,0,0,2.21.93A5.91,5.91,0,0,1,54,119a2.85,2.85,0,0,1,.76,2.09,2.76,2.76,0,0,1-.9,2.16,4.07,4.07,0,0,1-2.83.9,4.29,4.29,0,0,1-2.84-.82,3,3,0,0,1-1-2.36.59.59,0,0,1,.17-.46.53.53,0,0,1,.39-.15.54.54,0,0,1,.41.11.53.53,0,0,1,.21.43,2,2,0,0,0,.61,1.56A3.17,3.17,0,0,0,51,123a2.91,2.91,0,0,0,1.9-.58,1.68,1.68,0,0,0,.66-1.39,1.57,1.57,0,0,0-.57-1.28,6.55,6.55,0,0,0-2.49-1,5.69,5.69,0,0,1-2.41-1.16,2.49,2.49,0,0,1-.82-2,2.44,2.44,0,0,1,1-2.09,3.82,3.82,0,0,1,2.43-.72A4.23,4.23,0,0,1,53.57,113.66Z" transform="translate(-2.8 -3.43)"></path><path class="cls-2" d="M57.77,109a.56.56,0,0,1,.41-.15.56.56,0,0,1,.58.6v14.12a.55.55,0,0,1-.18.45.6.6,0,0,1-.4.15.61.61,0,0,1-.41-.15.68.68,0,0,1-.17-.47V109.41A.56.56,0,0,1,57.77,109Z" transform="translate(-2.8 -3.43)"></path><path class="cls-2" d="M68.42,113.46a2.64,2.64,0,0,1,1.08,2.33v6.31a.68.68,0,0,0,.16.5.67.67,0,0,0,.53.22.5.5,0,0,1,.37.15.67.67,0,0,1,.15.39.64.64,0,0,1-.13.4.54.54,0,0,1-.41.17,2.86,2.86,0,0,1-1.48-.28,1,1,0,0,1-.32-.87,4.49,4.49,0,0,1-1.27.91,5.21,5.21,0,0,1-2.2.45,3.49,3.49,0,0,1-2.53-.83,2.94,2.94,0,0,1-.85-2.25,3.24,3.24,0,0,1,.58-2,4.84,4.84,0,0,1,3.12-1.33,8.67,8.67,0,0,0,2.56-.62,1.24,1.24,0,0,0,.57-1.17,1.77,1.77,0,0,0-.62-1.48,3.09,3.09,0,0,0-2-.52,2.73,2.73,0,0,0-1.91.59,2.21,2.21,0,0,0-.65,1.52.62.62,0,0,1-.24.4.6.6,0,0,1-.41.12.62.62,0,0,1-.38-.2.51.51,0,0,1-.11-.47,3.46,3.46,0,0,1,1.19-2.33,4.09,4.09,0,0,1,2.52-.72A4.57,4.57,0,0,1,68.42,113.46Zm-.07,4.39a2.51,2.51,0,0,1-.92.46,12,12,0,0,1-2.19.46,3.6,3.6,0,0,0-2,.76,2,2,0,0,0-.56,1.53,1.85,1.85,0,0,0,.53,1.46,2.43,2.43,0,0,0,1.68.51,4.58,4.58,0,0,0,2.2-.51,3.21,3.21,0,0,0,1.25-1.28Z" transform="translate(-2.8 -3.43)"></path><path class="cls-2" d="M73.43,109.92a.61.61,0,0,1,.41-.15.57.57,0,0,1,.6.6v2.77H76c.32,0,.49.18.49.54s-.17.56-.49.56H74.44v7.9a1,1,0,0,0,.19.6.71.71,0,0,0,.63.29h.67a.61.61,0,0,1,.43.15.63.63,0,0,1,.15.41.54.54,0,0,1-.15.38.58.58,0,0,1-.43.17h-.88a1.59,1.59,0,0,1-1.34-.62,2,2,0,0,1-.44-1.3v-8h-1c-.29,0-.43-.19-.43-.56s.14-.54.43-.54h1v-2.77A.63.63,0,0,1,73.43,109.92Z" transform="translate(-2.8 -3.43)"></path><path class="cls-2" d="M80.19,109.14a1.09,1.09,0,0,1,.25.74,1.07,1.07,0,0,1-.25.7.83.83,0,0,1-.68.31.81.81,0,0,1-.69-.31,1.09,1.09,0,0,1-.22-.7,1.18,1.18,0,0,1,.22-.74.82.82,0,0,1,.69-.32A.84.84,0,0,1,80.19,109.14Zm-1.09,3.8a.59.59,0,0,1,.41-.15.66.66,0,0,1,.4.13.53.53,0,0,1,.19.44V123.5a.6.6,0,0,1-.19.47.54.54,0,0,1-.4.17.59.59,0,0,1-.41-.15.74.74,0,0,1-.16-.49V113.36A.54.54,0,0,1,79.1,112.94Z" transform="translate(-2.8 -3.43)"></path><path class="cls-2" d="M83.51,113.12a.63.63,0,0,1,.42-.16.57.57,0,0,1,.39.16.61.61,0,0,1,.18.48v1.22a4.2,4.2,0,0,1,1.38-1.48,3.84,3.84,0,0,1,2.05-.53,3.14,3.14,0,0,1,2.41,1,3.1,3.1,0,0,1,.81,2.18v7.55A.75.75,0,0,1,91,124a.59.59,0,0,1-.4.15.59.59,0,0,1-.41-.15.75.75,0,0,1-.17-.49V116a2,2,0,0,0-.52-1.42,2,2,0,0,0-1.55-.63,3.26,3.26,0,0,0-1.9.59,5.28,5.28,0,0,0-1.53,1.9v7.08a.69.69,0,0,1-.18.52.7.7,0,0,1-.39.18.6.6,0,0,1-.42-.18.71.71,0,0,1-.17-.49v-9.9A.69.69,0,0,1,83.51,113.12Z" transform="translate(-2.8 -3.43)"></path><path class="cls-2" d="M101.69,113.12a.66.66,0,0,1,.42-.14.58.58,0,0,1,.39.14.51.51,0,0,1,.19.44v9.7a3,3,0,0,1-1.07,2.32,4.86,4.86,0,0,1-3.34,1.07,5.39,5.39,0,0,1-2.5-.5,3.16,3.16,0,0,1-1.55-1.49.54.54,0,0,1,0-.49.49.49,0,0,1,.28-.35.46.46,0,0,1,.41-.06.42.42,0,0,1,.35.26,2.29,2.29,0,0,0,1,1.12,4.17,4.17,0,0,0,2,.42,3.68,3.68,0,0,0,2.44-.72,2,2,0,0,0,.78-1.57V122.1a3.28,3.28,0,0,1-1.17,1.17,3.92,3.92,0,0,1-2,.54,3.84,3.84,0,0,1-3.34-1.7,6.33,6.33,0,0,1-1.06-3.8A6.54,6.54,0,0,1,95,114.53a3.86,3.86,0,0,1,3.34-1.72,3.45,3.45,0,0,1,3.22,1.81v-1.06A.59.59,0,0,1,101.69,113.12Zm-5.87,2.17a5.61,5.61,0,0,0-.77,3,5.52,5.52,0,0,0,.77,3,2.92,2.92,0,0,0,4.92,0,5.43,5.43,0,0,0,.78-3,5.53,5.53,0,0,0-.78-3,2.87,2.87,0,0,0-4.92,0Z" transform="translate(-2.8 -3.43)"></path><path class="cls-2" d="M113.92,109.14a1.16,1.16,0,0,1,0,1.44.81.81,0,0,1-.67.31.79.79,0,0,1-.69-.31,1,1,0,0,1-.23-.7,1.13,1.13,0,0,1,.23-.74.79.79,0,0,1,.69-.32A.82.82,0,0,1,113.92,109.14Zm-1.09,3.8a.6.6,0,0,1,.42-.15.74.74,0,0,1,.41.13.63.63,0,0,1,.18.44V123.5a.71.71,0,0,1-.18.47.62.62,0,0,1-.83,0,.75.75,0,0,1-.17-.49V113.36A.54.54,0,0,1,112.83,112.94Z" transform="translate(-2.8 -3.43)"></path><path class="cls-2" d="M125.43,123.32a.79.79,0,0,1-.2.5.5.5,0,0,1-.4.15.6.6,0,0,1-.38-.19.57.57,0,0,1-.18-.46v-.84a3.42,3.42,0,0,1-1.19,1.17,3.87,3.87,0,0,1-2,.53,3.81,3.81,0,0,1-3.33-1.76,7.64,7.64,0,0,1,0-7.83,3.82,3.82,0,0,1,3.33-1.75,3.64,3.64,0,0,1,1.84.45,3.52,3.52,0,0,1,1.38,1.36v-5.16a.63.63,0,0,1,.18-.48.57.57,0,0,1,.4-.15.55.55,0,0,1,.39.16.67.67,0,0,1,.19.5Zm-6.84-8a6,6,0,0,0-.77,3.17,5.91,5.91,0,0,0,.77,3.14,2.83,2.83,0,0,0,4.9,0,5.74,5.74,0,0,0,.78-3.14,5.85,5.85,0,0,0-.78-3.17,2.83,2.83,0,0,0-4.9,0Z" transform="translate(-2.8 -3.43)"></path><path class="cls-2" d="M135.63,120.37a.64.64,0,0,1,.47,0,.52.52,0,0,1,.31.29.77.77,0,0,1,0,.56,4.56,4.56,0,0,1-1.57,2.12,3.91,3.91,0,0,1-2.46.78,3.64,3.64,0,0,1-3.17-1.74,6.87,6.87,0,0,1-1.06-3.9,7,7,0,0,1,1.06-3.94,3.63,3.63,0,0,1,3.17-1.75,3.68,3.68,0,0,1,3.19,1.75,6.84,6.84,0,0,1,1.08,3.94v.31h-7.33a5.79,5.79,0,0,0,.81,2.85,2.53,2.53,0,0,0,2.25,1.37,2.61,2.61,0,0,0,1.86-.69,4.32,4.32,0,0,0,1-1.56A.74.74,0,0,1,135.63,120.37Zm-.2-2.68a5.36,5.36,0,0,0-.81-2.48,2.6,2.6,0,0,0-2.24-1.31,2.53,2.53,0,0,0-2.21,1.29,5.15,5.15,0,0,0-.81,2.5Z" transform="translate(-2.8 -3.43)"></path><path class="cls-2" d="M145.86,113.46a2.64,2.64,0,0,1,1.08,2.33v6.31a.69.69,0,0,0,.17.5.64.64,0,0,0,.53.22.55.55,0,0,1,.37.15.59.59,0,0,1,.13.39.69.69,0,0,1-.11.4.59.59,0,0,1-.41.17,2.86,2.86,0,0,1-1.48-.28,1.05,1.05,0,0,1-.34-.87,4.31,4.31,0,0,1-1.26.91,5.19,5.19,0,0,1-2.21.45,3.52,3.52,0,0,1-2.53-.83,3,3,0,0,1-.83-2.25,3.3,3.3,0,0,1,.56-2,4.89,4.89,0,0,1,3.12-1.33,8.77,8.77,0,0,0,2.58-.62,1.24,1.24,0,0,0,.55-1.17,1.74,1.74,0,0,0-.61-1.48,3.08,3.08,0,0,0-2-.52,2.72,2.72,0,0,0-1.9.59,2.3,2.3,0,0,0-.65,1.52.59.59,0,0,1-.25.4.54.54,0,0,1-.77-.08.49.49,0,0,1-.12-.47,3.46,3.46,0,0,1,1.19-2.33,4.09,4.09,0,0,1,2.52-.72A4.55,4.55,0,0,1,145.86,113.46Zm-.08,4.39a2.37,2.37,0,0,1-.91.46,11.81,11.81,0,0,1-2.2.46,3.52,3.52,0,0,0-2,.76,2,2,0,0,0-.57,1.53,1.89,1.89,0,0,0,.53,1.46,2.42,2.42,0,0,0,1.67.51,4.6,4.6,0,0,0,2.21-.51,3.06,3.06,0,0,0,1.24-1.28Z" transform="translate(-2.8 -3.43)"></path><path class="cls-2" d="M156.77,113.66a2.8,2.8,0,0,1,.92,2,.59.59,0,0,1-.18.46.76.76,0,0,1-.42.21.64.64,0,0,1-.43-.12.65.65,0,0,1-.22-.45,1.79,1.79,0,0,0-.67-1.32,3,3,0,0,0-1.89-.5,2.82,2.82,0,0,0-1.58.41,1.4,1.4,0,0,0-.64,1.16,1.6,1.6,0,0,0,.57,1.29,6,6,0,0,0,2.19.93,5.91,5.91,0,0,1,2.76,1.3,2.82,2.82,0,0,1,.77,2.09,2.77,2.77,0,0,1-.92,2.16,4,4,0,0,1-2.83.9,4.37,4.37,0,0,1-2.84-.82,3,3,0,0,1-1-2.36.53.53,0,0,1,.17-.46.49.49,0,0,1,.38-.15.56.56,0,0,1,.41.11.59.59,0,0,1,.21.43,2,2,0,0,0,.61,1.56,3.2,3.2,0,0,0,2.11.58,2.92,2.92,0,0,0,1.91-.58,1.67,1.67,0,0,0,.64-1.39,1.61,1.61,0,0,0-.55-1.28,6.61,6.61,0,0,0-2.5-1,5.69,5.69,0,0,1-2.41-1.16,2.51,2.51,0,0,1-.81-2,2.47,2.47,0,0,1,1-2.09,3.89,3.89,0,0,1,2.44-.72A4.17,4.17,0,0,1,156.77,113.66Z" transform="translate(-2.8 -3.43)"></path><path class="cls-3" d="M167.12,109.92a.59.59,0,0,1,.41-.15.55.55,0,0,1,.4.15.51.51,0,0,1,.19.45v2.77h1.53c.33,0,.49.18.49.54s-.16.56-.49.56h-1.53v7.9a.92.92,0,0,0,.19.6.72.72,0,0,0,.63.29h.67a.65.65,0,0,1,.44.15.68.68,0,0,1,.14.41.57.57,0,0,1-.14.38.62.62,0,0,1-.44.17h-.87a1.56,1.56,0,0,1-1.34-.62,1.9,1.9,0,0,1-.45-1.3v-8h-1c-.29,0-.43-.19-.43-.56s.14-.54.43-.54h1v-2.77A.6.6,0,0,1,167.12,109.92Z" transform="translate(-2.8 -3.43)"></path><path class="cls-3" d="M180,114.59a7.35,7.35,0,0,1,0,7.83,4.27,4.27,0,0,1-6.91,0,7.52,7.52,0,0,1,0-7.83,4.29,4.29,0,0,1,6.91,0Zm-6,.76a5.94,5.94,0,0,0-.79,3.17,5.83,5.83,0,0,0,.79,3.14,3.07,3.07,0,0,0,5.16,0,5.62,5.62,0,0,0,.82-3.14,5.68,5.68,0,0,0-.82-3.17,3.07,3.07,0,0,0-5.16,0Z" transform="translate(-2.8 -3.43)"></path><path class="cls-3" d="M190.52,113.1a.62.62,0,0,1,.4-.14.75.75,0,0,1,.39.12.57.57,0,0,1,.19.45v.81a3.75,3.75,0,0,1,1-1,2.72,2.72,0,0,1,1.6-.48c.28,0,.43.2.43.59s-.13.62-.45.62a2.83,2.83,0,0,0-1.61.49,2.78,2.78,0,0,0-1,1.21v7.78a.63.63,0,0,1-.19.47.6.6,0,0,1-.39.17.55.55,0,0,1-.4-.17.63.63,0,0,1-.18-.47v-10A.55.55,0,0,1,190.52,113.1Z" transform="translate(-2.8 -3.43)"></path><path class="cls-3" d="M203.69,120.37a.64.64,0,0,1,.47,0,.51.51,0,0,1,.32.29.77.77,0,0,1,0,.56,4.57,4.57,0,0,1-1.58,2.12,3.93,3.93,0,0,1-2.46.78,3.64,3.64,0,0,1-3.16-1.74,6.8,6.8,0,0,1-1.07-3.9,6.91,6.91,0,0,1,1.07-3.94,3.62,3.62,0,0,1,3.16-1.75,3.66,3.66,0,0,1,3.19,1.75,6.84,6.84,0,0,1,1.09,3.94v.31h-7.33a5.79,5.79,0,0,0,.8,2.85,2.54,2.54,0,0,0,2.25,1.37,2.68,2.68,0,0,0,1.88-.69,4.73,4.73,0,0,0,1-1.56A.69.69,0,0,1,203.69,120.37Zm-.21-2.68a5.24,5.24,0,0,0-.8-2.48,2.59,2.59,0,0,0-2.24-1.31,2.54,2.54,0,0,0-2.21,1.29,5.24,5.24,0,0,0-.8,2.5Z" transform="translate(-2.8 -3.43)"></path><path class="cls-3" d="M213.92,113.46a2.65,2.65,0,0,1,1.09,2.33v6.31a.65.65,0,0,0,.68.72.52.52,0,0,1,.38.15.74.74,0,0,1,.14.39.7.7,0,0,1-.12.4.59.59,0,0,1-.41.17,2.84,2.84,0,0,1-1.48-.28,1,1,0,0,1-.34-.87,4.31,4.31,0,0,1-1.26.91,5.19,5.19,0,0,1-2.21.45,3.54,3.54,0,0,1-2.53-.83,2.93,2.93,0,0,1-.83-2.25,3.18,3.18,0,0,1,.58-2,4.75,4.75,0,0,1,3.1-1.33,8.68,8.68,0,0,0,2.58-.62,1.26,1.26,0,0,0,.55-1.17,1.8,1.8,0,0,0-.61-1.48,3.06,3.06,0,0,0-2-.52,2.69,2.69,0,0,0-1.89.59,2.26,2.26,0,0,0-.66,1.52.58.58,0,0,1-.24.4.59.59,0,0,1-.41.12.57.57,0,0,1-.37-.2.51.51,0,0,1-.11-.47,3.41,3.41,0,0,1,1.18-2.33,4.09,4.09,0,0,1,2.52-.72A4.53,4.53,0,0,1,213.92,113.46Zm-.08,4.39a2.3,2.3,0,0,1-.91.46,11.63,11.63,0,0,1-2.2.46,3.66,3.66,0,0,0-2,.76,2,2,0,0,0-.56,1.53,1.89,1.89,0,0,0,.53,1.46,2.42,2.42,0,0,0,1.67.51,4.6,4.6,0,0,0,2.21-.51,3.06,3.06,0,0,0,1.24-1.28Z" transform="translate(-2.8 -3.43)"></path><path class="cls-3" d="M218.44,109a.61.61,0,0,1,.8,0,.55.55,0,0,1,.18.45v14.12a.55.55,0,0,1-.18.45.61.61,0,0,1-.8,0,.63.63,0,0,1-.17-.47V109.41A.53.53,0,0,1,218.44,109Z" transform="translate(-2.8 -3.43)"></path><path class="cls-3" d="M224.14,109.14a1.13,1.13,0,0,1,.24.74,1.12,1.12,0,0,1-.24.7.85.85,0,0,1-.69.31.81.81,0,0,1-.69-.31,1.09,1.09,0,0,1-.23-.7,1.19,1.19,0,0,1,.23-.74.82.82,0,0,1,.69-.32A.86.86,0,0,1,224.14,109.14Zm-1.11,3.8a.62.62,0,0,1,.42-.15.69.69,0,0,1,.41.13.56.56,0,0,1,.18.44V123.5a.63.63,0,0,1-.18.47.57.57,0,0,1-.41.17A.62.62,0,0,1,223,124a.74.74,0,0,1-.16-.49V113.36A.54.54,0,0,1,223,112.94Z" transform="translate(-2.8 -3.43)"></path><path class="cls-3" d="M228,109.92a.57.57,0,0,1,.4-.15.6.6,0,0,1,.42.15.57.57,0,0,1,.18.45v2.77h1.54c.31,0,.47.18.47.54s-.16.56-.47.56H229v7.9a1,1,0,0,0,.19.6.74.74,0,0,0,.64.29h.66a.61.61,0,0,1,.43.15.63.63,0,0,1,.15.41.54.54,0,0,1-.15.38.58.58,0,0,1-.43.17h-.87a1.62,1.62,0,0,1-1.35-.62,1.9,1.9,0,0,1-.44-1.3v-8h-1c-.29,0-.43-.19-.43-.56s.14-.54.43-.54h1v-2.77A.56.56,0,0,1,228,109.92Z" transform="translate(-2.8 -3.43)"></path><path class="cls-3" d="M232.12,113.16a.69.69,0,0,1,.33-.3.65.65,0,0,1,.45,0,.41.41,0,0,1,.31.31l3,8.3,3-8.24a.5.5,0,0,1,.34-.34.85.85,0,0,1,.45,0,.58.58,0,0,1,.37.23.46.46,0,0,1,0,.44l-4.21,11.16a3.71,3.71,0,0,1-1,1.51,2,2,0,0,1-1.34.5H233a.53.53,0,0,1-.42-.17.59.59,0,0,1,0-.76.56.56,0,0,1,.42-.16h.84a.9.9,0,0,0,.65-.26,3.12,3.12,0,0,0,.47-.81l.65-1.48-3.48-9.39A.51.51,0,0,1,232.12,113.16Z" transform="translate(-2.8 -3.43)"></path><path class="cls-3" d="M249.84,109.92a.61.61,0,0,1,.41-.15.59.59,0,0,1,.41.15.54.54,0,0,1,.18.45v2.77h1.54c.32,0,.49.18.49.54s-.17.56-.49.56h-1.54v7.9a1,1,0,0,0,.19.6.74.74,0,0,0,.64.29h.67a.61.61,0,0,1,.43.15.62.62,0,0,1,.14.41.53.53,0,0,1-.14.38.58.58,0,0,1-.43.17h-.88a1.54,1.54,0,0,1-1.33-.62,1.86,1.86,0,0,1-.45-1.3v-8h-1c-.28,0-.42-.19-.42-.56s.14-.54.42-.54h1v-2.77A.59.59,0,0,1,249.84,109.92Z" transform="translate(-2.8 -3.43)"></path><path class="cls-3" d="M255.32,109a.54.54,0,0,1,.41-.17.49.49,0,0,1,.39.17.61.61,0,0,1,.2.48v5a4.52,4.52,0,0,1,1.3-1.16,3.87,3.87,0,0,1,1.95-.49,3.1,3.1,0,0,1,2.4,1,3.07,3.07,0,0,1,.83,2.18v7.55a.68.68,0,0,1-.2.49.55.55,0,0,1-.4.15.57.57,0,0,1-.4-.15.76.76,0,0,1-.18-.49V116a2,2,0,0,0-2.05-2,3.14,3.14,0,0,0-1.81.56,5.19,5.19,0,0,0-1.44,1.55v7.46a.7.7,0,0,1-.2.52.67.67,0,0,1-.39.18.59.59,0,0,1-.41-.18.66.66,0,0,1-.16-.49v-14A.62.62,0,0,1,255.32,109Z" transform="translate(-2.8 -3.43)"></path><path class="cls-3" d="M266.23,113.1a.67.67,0,0,1,.41-.14.75.75,0,0,1,.39.12.57.57,0,0,1,.18.45v.81a3.77,3.77,0,0,1,1-1,2.69,2.69,0,0,1,1.59-.48c.28,0,.44.2.44.59s-.13.62-.46.62a2.86,2.86,0,0,0-1.61.49,2.78,2.78,0,0,0-1,1.21v7.78a.63.63,0,0,1-.18.47.6.6,0,0,1-.39.17.59.59,0,0,1-.41-.17.62.62,0,0,1-.17-.47v-10A.54.54,0,0,1,266.23,113.1Z" transform="translate(-2.8 -3.43)"></path><path class="cls-3" d="M280,114.59a7.4,7.4,0,0,1,0,7.83,4.27,4.27,0,0,1-6.91,0,7.46,7.46,0,0,1,0-7.83,4.29,4.29,0,0,1,6.91,0Zm-6,.76a5.76,5.76,0,0,0-.8,3.17,5.66,5.66,0,0,0,.8,3.14,3,3,0,0,0,2.59,1.41,2.88,2.88,0,0,0,2.55-1.41,5.47,5.47,0,0,0,.84-3.14,5.53,5.53,0,0,0-.84-3.17,2.86,2.86,0,0,0-2.55-1.41A2.93,2.93,0,0,0,274,115.35Z" transform="translate(-2.8 -3.43)"></path><path class="cls-3" d="M291.4,123.81a.52.52,0,0,1-.4.16.54.54,0,0,1-.41-.16.62.62,0,0,1-.17-.47v-.86a4.77,4.77,0,0,1-1.36,1.15,3.76,3.76,0,0,1-1.95.51,3,3,0,0,1-2.36-1A3.23,3.23,0,0,1,284,121v-7.6a.75.75,0,0,1,.16-.52.58.58,0,0,1,.41-.18.61.61,0,0,1,.4.18.76.76,0,0,1,.17.52V121a2.06,2.06,0,0,0,.51,1.4,1.84,1.84,0,0,0,1.48.63,3.23,3.23,0,0,0,1.8-.58,5,5,0,0,0,1.51-1.51V113.4a.71.71,0,0,1,.17-.52.56.56,0,0,1,.41-.18.54.54,0,0,1,.4.18.68.68,0,0,1,.19.52v9.94A.6.6,0,0,1,291.4,123.81Z" transform="translate(-2.8 -3.43)"></path><path class="cls-3" d="M302.12,113.12a.64.64,0,0,1,.41-.14.66.66,0,0,1,.42.14.56.56,0,0,1,.18.44v9.7a3,3,0,0,1-1.08,2.32,4.81,4.81,0,0,1-3.33,1.07,5.43,5.43,0,0,1-2.51-.5,3.23,3.23,0,0,1-1.54-1.49.51.51,0,0,1-.05-.49.59.59,0,0,1,.69-.41.43.43,0,0,1,.35.26,2.32,2.32,0,0,0,1,1.12,4.23,4.23,0,0,0,2,.42,3.68,3.68,0,0,0,2.44-.72,1.92,1.92,0,0,0,.78-1.57V122.1a3.09,3.09,0,0,1-1.16,1.17,4,4,0,0,1-2.06.54,3.81,3.81,0,0,1-3.33-1.7,6.33,6.33,0,0,1-1.06-3.8,6.54,6.54,0,0,1,1.06-3.78,3.84,3.84,0,0,1,3.33-1.72,3.88,3.88,0,0,1,1.87.43,3.73,3.73,0,0,1,1.35,1.38v-1.06A.59.59,0,0,1,302.12,113.12Zm-5.87,2.17a5.61,5.61,0,0,0-.77,3,5.52,5.52,0,0,0,.77,3,2.92,2.92,0,0,0,4.92,0,5.35,5.35,0,0,0,.78-3,5.44,5.44,0,0,0-.78-3,2.76,2.76,0,0,0-2.45-1.39A2.79,2.79,0,0,0,296.25,115.29Z" transform="translate(-2.8 -3.43)"></path><path class="cls-3" d="M306.58,109a.54.54,0,0,1,.41-.17.5.5,0,0,1,.39.17.6.6,0,0,1,.19.48v5a4.68,4.68,0,0,1,1.31-1.16,3.87,3.87,0,0,1,1.95-.49,3.14,3.14,0,0,1,2.41,1,3.11,3.11,0,0,1,.82,2.18v7.55a.71.71,0,0,1-.19.49.64.64,0,0,1-.82,0,.75.75,0,0,1-.17-.49V116a2,2,0,0,0-.51-1.42,2,2,0,0,0-1.54-.63,3.11,3.11,0,0,0-1.8.56,5.23,5.23,0,0,0-1.46,1.55v7.46a.69.69,0,0,1-.19.52.7.7,0,0,1-.39.18.59.59,0,0,1-.41-.18.71.71,0,0,1-.16-.49v-14A.66.66,0,0,1,306.58,109Z" transform="translate(-2.8 -3.43)"></path><path class="cls-3" d="M325.13,109.14a1.13,1.13,0,0,1,.24.74,1.12,1.12,0,0,1-.24.7.87.87,0,0,1-.7.31.81.81,0,0,1-.68-.31,1.09,1.09,0,0,1-.22-.7,1.18,1.18,0,0,1,.22-.74.81.81,0,0,1,.68-.32A.88.88,0,0,1,325.13,109.14Zm-1.1,3.8a.59.59,0,0,1,.4-.15.7.7,0,0,1,.42.13.56.56,0,0,1,.18.44V123.5a.63.63,0,0,1-.18.47.57.57,0,0,1-.42.17.59.59,0,0,1-.4-.15.75.75,0,0,1-.17-.49V113.36A.54.54,0,0,1,324,112.94Z" transform="translate(-2.8 -3.43)"></path><path class="cls-3" d="M328.45,113.12a.58.58,0,0,1,.41-.16.57.57,0,0,1,.39.16.61.61,0,0,1,.18.48v1.22a4.2,4.2,0,0,1,1.38-1.48,3.83,3.83,0,0,1,2.06-.53,3.17,3.17,0,0,1,2.41,1,3.14,3.14,0,0,1,.8,2.18v7.55a.66.66,0,0,1-.18.49.54.54,0,0,1-.39.15.64.64,0,0,1-.42-.15.79.79,0,0,1-.15-.49V116a2,2,0,0,0-2.07-2,3.27,3.27,0,0,0-1.91.59,5.08,5.08,0,0,0-1.53,1.9v7.08a.69.69,0,0,1-.18.52.7.7,0,0,1-.39.18.56.56,0,0,1-.41-.18.67.67,0,0,1-.17-.49v-9.9A.64.64,0,0,1,328.45,113.12Z" transform="translate(-2.8 -3.43)"></path><path class="cls-3" d="M339.52,113.12a.6.6,0,0,1,.41-.16.57.57,0,0,1,.39.16.66.66,0,0,1,.19.48v1.22a4,4,0,0,1,1.37-1.48,3.84,3.84,0,0,1,2.05-.53,3,3,0,0,1,3.23,3.14v7.55a.67.67,0,0,1-.19.49.59.59,0,0,1-.79,0,.7.7,0,0,1-.17-.49V116a2.05,2.05,0,0,0-.52-1.42,2.08,2.08,0,0,0-1.56-.63,3.29,3.29,0,0,0-1.9.59,5.26,5.26,0,0,0-1.52,1.9v7.08a.74.74,0,0,1-.19.52.7.7,0,0,1-.39.18.58.58,0,0,1-.41-.18.72.72,0,0,1-.18-.49v-9.9A.69.69,0,0,1,339.52,113.12Z" transform="translate(-2.8 -3.43)"></path><path class="cls-3" d="M358,114.59a7.4,7.4,0,0,1,0,7.83,4.28,4.28,0,0,1-6.92,0,7.52,7.52,0,0,1,0-7.83,4.3,4.3,0,0,1,6.92,0Zm-6,.76a5.85,5.85,0,0,0-.8,3.17,5.74,5.74,0,0,0,.8,3.14,3,3,0,0,0,2.59,1.41,2.91,2.91,0,0,0,2.56-1.41,5.54,5.54,0,0,0,.83-3.14,5.6,5.6,0,0,0-.83-3.17,2.89,2.89,0,0,0-2.56-1.41A3,3,0,0,0,352,115.35Z" transform="translate(-2.8 -3.43)"></path><path class="cls-3" d="M360.73,113.53a.47.47,0,0,1,.06-.43.73.73,0,0,1,.36-.26.78.78,0,0,1,.43,0,.54.54,0,0,1,.32.34l3,9,3-9a.48.48,0,0,1,.29-.34.86.86,0,0,1,.45,0,.62.62,0,0,1,.36.26.45.45,0,0,1,.07.43l-3.47,10c-.13.43-.37.64-.73.64s-.58-.21-.7-.64Z" transform="translate(-2.8 -3.43)"></path><path class="cls-3" d="M377.91,113.46a2.64,2.64,0,0,1,1.08,2.33v6.31a.69.69,0,0,0,.17.5.65.65,0,0,0,.52.22.5.5,0,0,1,.38.15.67.67,0,0,1,.15.39.64.64,0,0,1-.13.4.57.57,0,0,1-.41.17,2.77,2.77,0,0,1-1.47-.28,1,1,0,0,1-.33-.87,4.54,4.54,0,0,1-1.28.91,5.12,5.12,0,0,1-2.2.45,3.49,3.49,0,0,1-2.53-.83,2.93,2.93,0,0,1-.84-2.25,3.18,3.18,0,0,1,.58-2,4.81,4.81,0,0,1,3.11-1.33,8.68,8.68,0,0,0,2.57-.62,1.25,1.25,0,0,0,.56-1.17,1.77,1.77,0,0,0-.61-1.48,3.1,3.1,0,0,0-2-.52,2.7,2.7,0,0,0-1.9.59,2.26,2.26,0,0,0-.66,1.52.55.55,0,0,1-.24.4.53.53,0,0,1-.4.12.62.62,0,0,1-.38-.2.51.51,0,0,1-.11-.47,3.5,3.5,0,0,1,1.19-2.33,4.06,4.06,0,0,1,2.51-.72A4.55,4.55,0,0,1,377.91,113.46Zm-.07,4.39a2.3,2.3,0,0,1-.91.46,11.81,11.81,0,0,1-2.2.46,3.59,3.59,0,0,0-2,.76,2,2,0,0,0-.57,1.53,1.93,1.93,0,0,0,.53,1.46,2.44,2.44,0,0,0,1.68.51,4.56,4.56,0,0,0,2.2-.51,3,3,0,0,0,1.25-1.28Z" transform="translate(-2.8 -3.43)"></path><path class="cls-3" d="M382.93,109.92a.64.64,0,0,1,.82,0,.57.57,0,0,1,.18.45v2.77h1.53c.34,0,.49.18.49.54s-.15.56-.49.56h-1.53v7.9a1,1,0,0,0,.19.6.75.75,0,0,0,.64.29h.67a.63.63,0,0,1,.43.15.69.69,0,0,1,.15.41.58.58,0,0,1-.15.38.6.6,0,0,1-.43.17h-.88a1.59,1.59,0,0,1-1.34-.62,1.9,1.9,0,0,1-.44-1.3v-8h-1c-.29,0-.42-.19-.42-.56s.13-.54.42-.54h1v-2.77A.59.59,0,0,1,382.93,109.92Z" transform="translate(-2.8 -3.43)"></path><path class="cls-3" d="M389.7,109.14a1.08,1.08,0,0,1,.24.74,1.06,1.06,0,0,1-.24.7.85.85,0,0,1-.69.31.81.81,0,0,1-.69-.31,1.09,1.09,0,0,1-.23-.7,1.19,1.19,0,0,1,.23-.74.82.82,0,0,1,.69-.32A.86.86,0,0,1,389.7,109.14Zm-1.1,3.8a.58.58,0,0,1,.41-.15.71.71,0,0,1,.41.13.56.56,0,0,1,.18.44V123.5a.63.63,0,0,1-.18.47.58.58,0,0,1-.41.17.58.58,0,0,1-.41-.15.74.74,0,0,1-.16-.49V113.36A.54.54,0,0,1,388.6,112.94Z" transform="translate(-2.8 -3.43)"></path><path class="cls-3" d="M391.6,113.53a.5.5,0,0,1,0-.43.78.78,0,0,1,.36-.26.86.86,0,0,1,.45,0,.58.58,0,0,1,.31.34l3,9,3-9a.49.49,0,0,1,.3-.34.86.86,0,0,1,.45,0,.65.65,0,0,1,.36.26.45.45,0,0,1,.07.43l-3.47,10c-.14.43-.38.64-.73.64s-.59-.21-.7-.64Z" transform="translate(-2.8 -3.43)"></path><path class="cls-3" d="M409.39,120.37a.59.59,0,0,1,.45,0,.53.53,0,0,1,.33.29.77.77,0,0,1,0,.56,4.63,4.63,0,0,1-1.57,2.12,3.91,3.91,0,0,1-2.46.78A3.64,3.64,0,0,1,403,122.4a6.87,6.87,0,0,1-1.07-3.9,7,7,0,0,1,1.07-3.94,3.63,3.63,0,0,1,3.17-1.75,3.7,3.7,0,0,1,3.19,1.75,6.91,6.91,0,0,1,1.07,3.94v.31h-7.32a5.79,5.79,0,0,0,.8,2.85,2.56,2.56,0,0,0,2.26,1.37,2.66,2.66,0,0,0,1.86-.69,4.31,4.31,0,0,0,1-1.56A.69.69,0,0,1,409.39,120.37Zm-.21-2.68a5.47,5.47,0,0,0-.8-2.48,2.59,2.59,0,0,0-2.24-1.31,2.56,2.56,0,0,0-2.23,1.29,5.35,5.35,0,0,0-.79,2.5Z" transform="translate(-2.8 -3.43)"></path><path class="cls-3" d="M426.57,120.37a.64.64,0,0,1,.47,0,.49.49,0,0,1,.31.29.77.77,0,0,1,0,.56,4.61,4.61,0,0,1-1.56,2.12,4,4,0,0,1-2.46.78,3.65,3.65,0,0,1-3.18-1.74,6.87,6.87,0,0,1-1.06-3.9,7,7,0,0,1,1.06-3.94,3.63,3.63,0,0,1,3.18-1.75,3.68,3.68,0,0,1,3.19,1.75,7,7,0,0,1,1.07,3.94v.31h-7.32a5.69,5.69,0,0,0,.81,2.85,2.51,2.51,0,0,0,2.25,1.37,2.66,2.66,0,0,0,1.86-.69,4.45,4.45,0,0,0,1-1.56A.69.69,0,0,1,426.57,120.37Zm-.21-2.68a5.24,5.24,0,0,0-.8-2.48,2.59,2.59,0,0,0-2.23-1.31,2.55,2.55,0,0,0-2.23,1.29,5.24,5.24,0,0,0-.79,2.5Z" transform="translate(-2.8 -3.43)"></path><path class="cls-3" d="M438.75,123.32a.7.7,0,0,1-.2.5.48.48,0,0,1-.39.15.59.59,0,0,1-.55-.65v-.84a3.64,3.64,0,0,1-1.2,1.17,3.92,3.92,0,0,1-2,.53,3.81,3.81,0,0,1-3.34-1.76,7.7,7.7,0,0,1,0-7.83,3.83,3.83,0,0,1,3.34-1.75,3.63,3.63,0,0,1,3.23,1.81v-5.16a.76.76,0,0,1,.15-.48.64.64,0,0,1,.42-.15.57.57,0,0,1,.39.16.67.67,0,0,1,.18.5Zm-6.83-8a6,6,0,0,0-.77,3.17,5.91,5.91,0,0,0,.77,3.14,2.83,2.83,0,0,0,4.9,0,5.83,5.83,0,0,0,.79-3.14,5.94,5.94,0,0,0-.79-3.17,2.83,2.83,0,0,0-4.9,0Z" transform="translate(-2.8 -3.43)"></path><path class="cls-3" d="M449.4,123.81a.61.61,0,0,1-.82,0,.65.65,0,0,1-.16-.47v-.86a4.94,4.94,0,0,1-1.37,1.15,3.8,3.8,0,0,1-2,.51,3,3,0,0,1-2.35-1A3.24,3.24,0,0,1,442,121v-7.6a.76.76,0,0,1,.17-.52.58.58,0,0,1,.41-.18.59.59,0,0,1,.4.18.76.76,0,0,1,.18.52V121a2.06,2.06,0,0,0,.51,1.4,1.8,1.8,0,0,0,1.46.63,3.21,3.21,0,0,0,1.81-.58,5.18,5.18,0,0,0,1.52-1.51V113.4a.75.75,0,0,1,.16-.52.56.56,0,0,1,.82,0,.72.72,0,0,1,.19.52v9.94A.63.63,0,0,1,449.4,123.81Z" transform="translate(-2.8 -3.43)"></path><path class="cls-3" d="M457,112.81a4.4,4.4,0,0,1,2.74.83,3.46,3.46,0,0,1,1.22,1.78.56.56,0,0,1-.11.46.63.63,0,0,1-.83.2.51.51,0,0,1-.3-.4,2.44,2.44,0,0,0-.95-1.37,3.5,3.5,0,0,0-1.85-.41,2.72,2.72,0,0,0-2.45,1.41,6,6,0,0,0-.75,3.16,6.13,6.13,0,0,0,.75,3.21,2.74,2.74,0,0,0,2.45,1.35,3.66,3.66,0,0,0,2-.44,2.55,2.55,0,0,0,1-1.46.57.57,0,0,1,.34-.41.82.82,0,0,1,.47,0,.58.58,0,0,1,.36.26.49.49,0,0,1,0,.5,4.72,4.72,0,0,1-1.36,1.88,4.39,4.39,0,0,1-2.79.82,3.89,3.89,0,0,1-3.43-1.71,6.74,6.74,0,0,1-1-3.93,6.85,6.85,0,0,1,1.06-3.94A3.92,3.92,0,0,1,457,112.81Z" transform="translate(-2.8 -3.43)"></path><path class="cls-3" d="M470.16,113.46a2.64,2.64,0,0,1,1.08,2.33v6.31a.69.69,0,0,0,.18.5.61.61,0,0,0,.51.22.47.47,0,0,1,.37.15.61.61,0,0,1,.15.39.58.58,0,0,1-.13.4.55.55,0,0,1-.4.17,2.89,2.89,0,0,1-1.48-.28,1.05,1.05,0,0,1-.34-.87,4.27,4.27,0,0,1-1.25.91,5.21,5.21,0,0,1-2.2.45,3.54,3.54,0,0,1-2.55-.83,2.93,2.93,0,0,1-.83-2.25,3.12,3.12,0,0,1,.58-2,4.83,4.83,0,0,1,3.11-1.33,9,9,0,0,0,2.58-.62,1.26,1.26,0,0,0,.55-1.17,1.77,1.77,0,0,0-.62-1.48,3,3,0,0,0-2-.52,2.7,2.7,0,0,0-1.9.59A2.36,2.36,0,0,0,465,116a.55.55,0,0,1-.24.4.56.56,0,0,1-.4.12.64.64,0,0,1-.39-.2.57.57,0,0,1-.1-.47,3.42,3.42,0,0,1,1.19-2.33,4.05,4.05,0,0,1,2.52-.72A4.54,4.54,0,0,1,470.16,113.46Zm-.07,4.39a2.51,2.51,0,0,1-.92.46,11.63,11.63,0,0,1-2.2.46,3.52,3.52,0,0,0-2,.76,2,2,0,0,0-.56,1.53,1.92,1.92,0,0,0,.52,1.46,2.45,2.45,0,0,0,1.69.51,4.61,4.61,0,0,0,2.2-.51,3.25,3.25,0,0,0,1.24-1.28Z" transform="translate(-2.8 -3.43)"></path><path class="cls-3" d="M475.17,109.92a.64.64,0,0,1,.42-.15.59.59,0,0,1,.41.15.57.57,0,0,1,.19.45v2.77h1.52q.48,0,.48.54c0,.37-.16.56-.48.56h-1.52v7.9a1,1,0,0,0,.18.6.75.75,0,0,0,.64.29h.66a.63.63,0,0,1,.44.15.62.62,0,0,1,.14.41.53.53,0,0,1-.14.38.6.6,0,0,1-.44.17h-.87a1.55,1.55,0,0,1-1.33-.62,1.9,1.9,0,0,1-.45-1.3v-8h-1c-.29,0-.43-.19-.43-.56s.14-.54.43-.54h1v-2.77A.59.59,0,0,1,475.17,109.92Z" transform="translate(-2.8 -3.43)"></path><path class="cls-3" d="M482,109.14a1.13,1.13,0,0,1,.24.74,1.12,1.12,0,0,1-.24.7.87.87,0,0,1-.7.31.84.84,0,0,1-.69-.31,1.14,1.14,0,0,1-.21-.7,1.24,1.24,0,0,1,.21-.74.85.85,0,0,1,.69-.32A.88.88,0,0,1,482,109.14Zm-1.11,3.8a.61.61,0,0,1,.41-.15.72.72,0,0,1,.42.13.57.57,0,0,1,.19.44V123.5a.63.63,0,0,1-.19.47.59.59,0,0,1-.42.17.61.61,0,0,1-.41-.15.79.79,0,0,1-.15-.49V113.36A.57.57,0,0,1,480.84,112.94Z" transform="translate(-2.8 -3.43)"></path><path class="cls-3" d="M492.68,114.59a7.46,7.46,0,0,1,0,7.83,4,4,0,0,1-3.44,1.76,4.07,4.07,0,0,1-3.48-1.76,7.58,7.58,0,0,1,0-7.83,4.08,4.08,0,0,1,3.48-1.75A4,4,0,0,1,492.68,114.59Zm-6,.76a5.76,5.76,0,0,0-.8,3.17,5.66,5.66,0,0,0,.8,3.14,2.94,2.94,0,0,0,2.59,1.41,2.91,2.91,0,0,0,2.55-1.41,5.55,5.55,0,0,0,.84-3.14,5.6,5.6,0,0,0-.84-3.17,2.89,2.89,0,0,0-2.55-1.41A2.92,2.92,0,0,0,486.65,115.35Z" transform="translate(-2.8 -3.43)"></path><path class="cls-3" d="M496.82,113.12a.63.63,0,0,1,.42-.16.57.57,0,0,1,.38.16.66.66,0,0,1,.19.48v1.22a4,4,0,0,1,1.38-1.48,3.81,3.81,0,0,1,2-.53,3.11,3.11,0,0,1,2.41,1,3.06,3.06,0,0,1,.82,2.18v7.55a.71.71,0,0,1-.18.49.6.6,0,0,1-.4.15.57.57,0,0,1-.4-.15.71.71,0,0,1-.18-.49V116a2,2,0,0,0-2.07-2,3.26,3.26,0,0,0-1.89.59,5.08,5.08,0,0,0-1.53,1.9v7.08a.74.74,0,0,1-.19.52.71.71,0,0,1-.38.18.6.6,0,0,1-.42-.18.72.72,0,0,1-.18-.49v-9.9A.69.69,0,0,1,496.82,113.12Z" transform="translate(-2.8 -3.43)"></path></svg>